<?xml version="1.0" encoding="utf-8"?>
<!-- Generator: Adobe Illustrator 22.0.0, SVG Export Plug-In . SVG Version: 6.00 Build 0)  -->
<svg version="1.1" id="Layer_1" xmlns="http://www.w3.org/2000/svg" xmlns:xlink="http://www.w3.org/1999/xlink" x="0px" y="0px"
	 viewBox="0 0 64.8 66.1" style="enable-background:new 0 0 64.8 66.1;" xml:space="preserve">
<style type="text/css">
	.st0{fill:#FF9933;}
</style>
<path id="XMLID_3_" class="st0" d="M5.8,52C2.6,52,0,49.4,0,46.2V5.8C0,2.6,2.6,0,5.8,0H45c3.2,0,5.8,2.6,5.8,5.8l0,33.5L39.5,28
	V12.2c0-1.2-1-2.2-2.2-2.2H13.4c-1.2,0-2.2,1-2.2,2.2v27.5c0,1.2,1,2.2,2.2,2.2h14.5L38,52H5.8z M64.8,63.9c0,1.2-1,2.2-2.2,2.2
	l-24,0V56h10v0l-3.2-2.2l-22.9-23l7.1-7.1l23,22.9l2.2,3.2v-9.9l10,0V63.9z"/>
</svg>
